# xmcd
#
# Track frame offsets: 
#        150
#        26825
#        47855
#        65176
#        99151
#        116401
#        148950
#        177161
#        192520
#        210385
#
# Disc length: 3106 seconds
#
# Revision: 0
# Processed by: cddbd v1.5.2PL0 Copyright (c) Steve Scherf et al.
# Submitted via: ExactAudioCopy v0.95a5
#
DISCID=950c200a
DTITLE=李祥霆 - 禅思
DYEAR=1900
DGENRE=Folk
TTITLE0=圣者诞生
TTITLE1=闻经悟道
TTITLE2=辞亲北上
TTITLE3=禅宗衣钵
TTITLE4=夜半南归
TTITLE5=隐遁深山
TTITLE6=法性升座
TTITLE7=宝林弘法
TTITLE8=汇编宗经
TTITLE9=安然示寂
EXTD=
EXTT0=
EXTT1=
EXTT2=
EXTT3=
EXTT4=
EXTT5=
EXTT6=
EXTT7=
EXTT8=
EXTT9=
PLAYORDER=
